<?xml version="1.0" encoding="utf-8"?>
<!-- Generator: Adobe Illustrator 24.3.0, SVG Export Plug-In . SVG Version: 6.00 Build 0)  -->
<svg version="1.1" id="Layer_1" xmlns="http://www.w3.org/2000/svg" xmlns:xlink="http://www.w3.org/1999/xlink" x="0px" y="0px"
	 viewBox="0 0 512 512" enable-background="new 0 0 512 512" xml:space="preserve">
<g>
	<defs>
		<path id="SVGID_1_" d="M511.99,0.11L512,511.99L7.83,512c129.69-132.58,66.13-258.48,101.27-391.22
			C123.1,67.91,174.88,22.47,219.04,0L511.99,0.11z"/>
	</defs>
	<clipPath id="SVGID_2_">
		<use xlink:href="#SVGID_1_"  overflow="visible"/>
	</clipPath>
	<g clip-path="url(#SVGID_2_)">
		<linearGradient id="SVGID_3_" gradientUnits="userSpaceOnUse" x1="256.1719" y1="1224.6707" x2="256.1719" y2="-274.9518">
			<stop  offset="0" style="stop-color:#5A97E9"/>
			<stop  offset="1" style="stop-color:#FFFFFF"/>
		</linearGradient>
		<polygon fill="url(#SVGID_3_)" points="511.99,0.11 512,511.99 0.35,512.01 0.34,0.12 		"/>
		<g>
			
				<linearGradient id="SVGID_4_" gradientUnits="userSpaceOnUse" x1="427.7304" y1="84.9508" x2="429.8977" y2="139.855" gradientTransform="matrix(1 0 0 1 -0.1329 0.1339)">
				<stop  offset="0" style="stop-color:#FFFFFF"/>
				<stop  offset="1" style="stop-color:#FFFFFF;stop-opacity:0"/>
			</linearGradient>
			<path opacity="0.8" fill="url(#SVGID_4_)" d="M361.8,112.64c0,1.57,0.64,3,1.68,4.04c1.03,1.04,2.46,1.68,4.03,1.68l122.34,0
				c3.14,0,5.72-2.57,5.72-5.72c0-1.57-0.64-3-1.68-4.04c-1.03-1.04-2.46-1.68-4.03-1.68l-5.78,0c-2.28-5.31-7.56-9.02-13.7-9.02
				c-4.13,0-7.87,1.68-10.57,4.4c-3.6-6.11-10.25-10.22-17.86-10.22c-2.09,0-4.11,0.32-6.01,0.89
				c-3.98-7.49-11.85-12.58-20.92-12.58c-10.89,0-20.05,7.35-22.82,17.36c-2.01-1-4.27-1.58-6.67-1.58
				c-6.79,0-12.52,4.53-14.32,10.75h-3.68C364.37,106.92,361.8,109.49,361.8,112.64z"/>
			
				<linearGradient id="SVGID_5_" gradientUnits="userSpaceOnUse" x1="321.5483" y1="24.9141" x2="321.5483" y2="79.8183" gradientTransform="matrix(1 0 0 1 -0.1329 0.1339)">
				<stop  offset="0" style="stop-color:#FFFFFF"/>
				<stop  offset="1" style="stop-color:#FFFFFF;stop-opacity:0"/>
			</linearGradient>
			<path opacity="0.8" fill="url(#SVGID_5_)" d="M234.15,59.49c0,2.05,0.84,3.92,2.2,5.27c1.34,1.36,3.21,2.2,5.26,2.2l159.61,0
				c4.1,0,7.46-3.36,7.46-7.47c0-2.05-0.84-3.92-2.2-5.27c-1.34-1.36-3.21-2.2-5.26-2.2h-7.54c-2.98-6.92-9.86-11.76-17.87-11.76
				c-5.39,0-10.27,2.2-13.8,5.74c-4.7-7.97-13.37-13.33-23.3-13.33c-2.73,0-5.36,0.41-7.84,1.16c-5.19-9.77-15.46-16.41-27.29-16.41
				c-14.21,0-26.16,9.59-29.77,22.65c-2.62-1.31-5.57-2.06-8.71-2.06c-8.86,0-16.34,5.92-18.69,14.02l-4.81,0
				C237.51,52.02,234.15,55.38,234.15,59.49z"/>
			
				<linearGradient id="SVGID_6_" gradientUnits="userSpaceOnUse" x1="184.4487" y1="91.6172" x2="184.4487" y2="145.799" gradientTransform="matrix(1 0 0 1 -0.1329 0.1339)">
				<stop  offset="0" style="stop-color:#FFFFFF"/>
				<stop  offset="1" style="stop-color:#FFFFFF;stop-opacity:0"/>
			</linearGradient>
			<path opacity="0.8" fill="url(#SVGID_6_)" d="M117.43,120.21c0,1.57,0.64,3,1.68,4.04c1.03,1.04,2.46,1.68,4.03,1.68l122.34,0
				c3.14,0,5.72-2.57,5.72-5.72c0-1.57-0.64-3-1.68-4.04c-1.03-1.04-2.46-1.68-4.03-1.68l-5.78,0c-2.28-5.31-7.56-9.02-13.7-9.02
				c-4.13,0-7.87,1.68-10.57,4.4c-3.6-6.11-10.25-10.22-17.86-10.22c-2.09,0-4.11,0.32-6.01,0.89
				c-3.98-7.49-11.85-12.58-20.92-12.58c-10.89,0-20.05,7.35-22.82,17.36c-2.01-1-4.27-1.58-6.67-1.58
				c-6.79,0-12.52,4.53-14.32,10.75h-3.68C120,114.49,117.43,117.06,117.43,120.21z"/>
		</g>
		<g>
			<path opacity="0.5" fill="#5A97E9" d="M455.81,361.65c0,3.43-57.3,6.2-127.98,6.2s-127.98-2.78-127.98-6.2
				c0-3.43,57.3-6.2,127.98-6.2S455.81,358.23,455.81,361.65z"/>
			<g>
				<g>
					<linearGradient id="SVGID_7_" gradientUnits="userSpaceOnUse" x1="329.9017" y1="290.9892" x2="325.5669" y2="347.8226">
						<stop  offset="0" style="stop-color:#D2D2D2"/>
						<stop  offset="0.3082" style="stop-color:#DBDBDB"/>
						<stop  offset="0.8191" style="stop-color:#F5F5F5"/>
						<stop  offset="0.9944" style="stop-color:#FFFFFF"/>
					</linearGradient>
					<rect x="301.56" y="300.14" fill="url(#SVGID_7_)" width="51.98" height="43.25"/>
					<linearGradient id="SVGID_8_" gradientUnits="userSpaceOnUse" x1="327.9283" y1="370.2643" x2="327.9283" y2="350.9027">
						<stop  offset="0" style="stop-color:#D2D2D2"/>
						<stop  offset="0.3082" style="stop-color:#DBDBDB"/>
						<stop  offset="0.8191" style="stop-color:#F5F5F5"/>
						<stop  offset="0.9944" style="stop-color:#FFFFFF"/>
					</linearGradient>
					<path fill="url(#SVGID_8_)" d="M402.16,359.85H253.7l0,0c0-9.05,7.4-16.45,16.45-16.45H385.7
						C394.75,343.39,402.16,350.8,402.16,359.85L402.16,359.85z"/>
					<linearGradient id="SVGID_9_" gradientUnits="userSpaceOnUse" x1="327.7413" y1="317.2839" x2="327.7413" y2="77.8009">
						<stop  offset="0" style="stop-color:#031A2F"/>
						<stop  offset="1" style="stop-color:#00446F"/>
					</linearGradient>
					<path fill="url(#SVGID_9_)" d="M470.96,111.57v162.89H184.52V112.03c0-3.76,3.08-6.84,6.84-6.84h273.22
						C468.09,105.19,470.96,108.06,470.96,111.57z"/>
					<linearGradient id="SVGID_10_" gradientUnits="userSpaceOnUse" x1="327.7422" y1="310.5412" x2="327.7422" y2="283.5693">
						<stop  offset="0" style="stop-color:#D2D2D2"/>
						<stop  offset="0.3082" style="stop-color:#DBDBDB"/>
						<stop  offset="0.8191" style="stop-color:#F5F5F5"/>
						<stop  offset="0.9944" style="stop-color:#FFFFFF"/>
					</linearGradient>
					<path fill="url(#SVGID_10_)" d="M470.97,274.46c0,7.09-2.87,13.51-7.52,18.16c-1.4,1.4-2.97,2.64-4.67,3.69
						c-3.92,2.42-8.54,3.82-13.49,3.82H210.19c-14.18,0-25.68-11.49-25.68-25.68H470.97z"/>
					<linearGradient id="SVGID_11_" gradientUnits="userSpaceOnUse" x1="320.8857" y1="287.3" x2="334.2233" y2="287.3">
						<stop  offset="0" style="stop-color:#031A2F"/>
						<stop  offset="1" style="stop-color:#00446F"/>
					</linearGradient>
					<path fill="url(#SVGID_11_)" d="M334.22,287.3c0,3.68-2.99,6.67-6.67,6.67s-6.67-2.99-6.67-6.67c0-3.68,2.99-6.67,6.67-6.67
						S334.22,283.62,334.22,287.3z"/>
					<path fill="#353535" d="M458.58,122.01v131.64c0,2.46-2.02,4.48-4.49,4.48H201.01c-2.47,0-4.49-2.02-4.49-4.48V122.01
						c0-2.47,2.02-4.49,4.49-4.49h253.08C456.56,117.53,458.58,119.54,458.58,122.01z"/>
					<path fill="#686868" d="M458.58,122.01v9.33H196.53v-9.33c0-2.47,2.02-4.49,4.49-4.49H454.1
						C456.56,117.53,458.58,119.54,458.58,122.01z"/>
					<g>
						<linearGradient id="SVGID_12_" gradientUnits="userSpaceOnUse" x1="431.5937" y1="124.468" x2="435.8974" y2="124.468">
							<stop  offset="0" style="stop-color:#FFCC33"/>
							<stop  offset="1" style="stop-color:#FFB800"/>
						</linearGradient>
						<path fill="url(#SVGID_12_)" d="M435.9,124.47c0,1.19-0.96,2.15-2.15,2.15s-2.15-0.96-2.15-2.15s0.96-2.15,2.15-2.15
							S435.9,123.28,435.9,124.47z"/>
						<path fill="#00E0E8" d="M442.87,124.47c0,1.19-0.96,2.15-2.15,2.15c-1.19,0-2.15-0.96-2.15-2.15s0.96-2.15,2.15-2.15
							C441.91,122.32,442.87,123.28,442.87,124.47z"/>
						<path fill="#EA3725" d="M449.51,124.47c0,1.19-0.96,2.15-2.15,2.15c-1.19,0-2.15-0.96-2.15-2.15s0.96-2.15,2.15-2.15
							C448.55,122.32,449.51,123.28,449.51,124.47z"/>
					</g>
					<g>
						<rect x="226.12" y="143.32" fill="#FFFFFF" width="203.61" height="101.41"/>
						<rect x="226.12" y="143.32" fill="#686868" width="203.61" height="8.71"/>
						<g>
							<linearGradient id="SVGID_13_" gradientUnits="userSpaceOnUse" x1="409.3088" y1="147.668" x2="412.9211" y2="147.668">
								<stop  offset="0" style="stop-color:#FFCC33"/>
								<stop  offset="1" style="stop-color:#FFB800"/>
							</linearGradient>
							<circle fill="url(#SVGID_13_)" cx="411.11" cy="147.67" r="1.81"/>
							<circle fill="#00E0E8" cx="416.97" cy="147.67" r="1.81"/>
							<path fill="#EA3725" d="M424.35,147.67c0,1-0.81,1.81-1.81,1.81c-1,0-1.81-0.81-1.81-1.81c0-1,0.81-1.81,1.81-1.81
								C423.54,145.86,424.35,146.67,424.35,147.67z"/>
						</g>
						<g>
							<linearGradient id="SVGID_14_" gradientUnits="userSpaceOnUse" x1="325.6172" y1="219.0564" x2="330.4336" y2="172.819">
								<stop  offset="0" style="stop-color:#0074FA"/>
								<stop  offset="1" style="stop-color:#20ADFF"/>
							</linearGradient>
							<circle fill="url(#SVGID_14_)" cx="327.93" cy="196.87" r="31"/>
							<polygon fill="#FFFFFF" points="317.03,213.17 317.03,180.57 344.88,196.87 							"/>
						</g>
						<g opacity="0.3">
							<rect x="237.7" y="229.6" fill="#686868" width="32.64" height="4.37"/>
							<rect x="237.7" y="219.62" fill="#686868" width="32.64" height="4.37"/>
							<rect x="237.7" y="209.65" fill="#686868" width="32.64" height="4.37"/>
							<rect x="237.7" y="199.67" fill="#686868" width="32.64" height="4.37"/>
							<rect x="237.7" y="189.7" fill="#686868" width="32.64" height="4.37"/>
							<rect x="237.7" y="179.72" fill="#686868" width="32.64" height="4.37"/>
							<rect x="237.7" y="169.75" fill="#686868" width="32.64" height="4.37"/>
							<rect x="237.7" y="159.77" fill="#686868" width="32.64" height="4.37"/>
						</g>
						<g opacity="0.3">
							<rect x="384.33" y="229.6" fill="#686868" width="32.64" height="4.37"/>
							<rect x="384.33" y="219.62" fill="#686868" width="32.64" height="4.37"/>
							<rect x="384.33" y="209.65" fill="#686868" width="32.64" height="4.37"/>
							<rect x="384.33" y="199.67" fill="#686868" width="32.64" height="4.37"/>
							<rect x="384.33" y="189.7" fill="#686868" width="32.64" height="4.37"/>
							<rect x="384.33" y="179.72" fill="#686868" width="32.64" height="4.37"/>
							<rect x="384.33" y="169.75" fill="#686868" width="32.64" height="4.37"/>
							<rect x="384.33" y="159.77" fill="#686868" width="32.64" height="4.37"/>
						</g>
					</g>
				</g>
				<polygon opacity="0.1" fill="#FFFFFF" points="365.15,117.53 224.87,257.81 294.95,257.81 435.87,116.89 				"/>
				<polygon opacity="0.1" fill="#FFFFFF" points="283.46,116.9 282.83,117.53 196.53,203.82 196.53,133.74 212.74,117.53 				"/>
				<polygon opacity="0.1" fill="#FFFFFF" points="458.58,170.53 458.58,240.61 441.38,257.81 371.3,257.81 				"/>
			</g>
		</g>
		<g>
			<path opacity="0.5" fill="#5A97E9" d="M254.15,431.65c0,4.14-30.1,7.49-67.22,7.49s-67.22-3.35-67.22-7.49
				c0-4.14,30.1-7.49,67.22-7.49S254.15,427.51,254.15,431.65z"/>
			<g>
				<g>
					<g>
						<path fill="#E9975B" d="M150.44,235.03l6.28,20.49l1.74,5.66l38.23,124.74l1.76,5.72l6.3,20.55c0.26,0.85,1.04,1.4,1.88,1.4
							c0.19,0,0.38-0.03,0.58-0.09c1.04-0.32,1.62-1.42,1.3-2.47l-6.24-20.35l-1.66-5.41l-38.64-126.04l-1.55-5.07l-6.22-20.28
							c-0.32-1.04-1.42-1.63-2.46-1.31C150.71,232.88,150.13,233.99,150.44,235.03z"/>
						<path fill="#C06934" d="M196.69,385.92l1.76,5.72c1.36-0.31,2.83-0.69,3.83-0.96l-1.66-5.41L196.69,385.92z"/>
						<path fill="#C06934" d="M156.72,255.52l1.74,5.66l3.52-1.95l-1.55-5.07C159.52,254.45,157.92,254.98,156.72,255.52z"/>
					</g>
					<g>
						<path fill="#E9975B" d="M145.39,395.84c13.24,8.18,28.81,12.46,44.79,12.46c2.06,0,4.12-0.07,6.18-0.21
							c2.04-0.15,4.08-0.36,6.12-0.64c1.89-0.26,3.2-2,2.95-3.89c-0.26-1.89-2-3.2-3.89-2.95c-2.52,0.35-5.03,0.58-7.52,0.71
							c-16.16,0.8-31.58-3.07-45.01-11.35c-24.78-15.31-39.97-43.71-38.67-72.33c1.19-26.52,16.62-51.91,38.97-65.04
							c1.75-1.03,3.54-1.98,5.36-2.85c1.73-0.82,2.45-2.88,1.64-4.61c-0.83-1.72-2.89-2.44-4.61-1.63c-1.89,0.9-3.75,1.88-5.56,2.94
							c-24.49,14.24-41.4,41.94-42.71,70.87C102.02,348.9,118.1,378.99,145.39,395.84z"/>
					</g>
					<g>
						<g>
							<linearGradient id="SVGID_15_" gradientUnits="userSpaceOnUse" x1="259.9804" y1="398.4637" x2="160.2808" y2="294.4292">
								<stop  offset="0" style="stop-color:#0074FA"/>
								<stop  offset="1" style="stop-color:#20ADFF"/>
							</linearGradient>
							<path fill="url(#SVGID_15_)" d="M117.45,321.2c0,0.98,0.02,1.95,0.07,2.91c1.53,36.46,31.58,65.55,68.42,65.54
								c37.81-0.01,68.46-30.68,68.44-68.49c0-12.4-3.3-24.03-9.07-34.05c-2.9-5.06-6.44-9.7-10.51-13.84
								c-12.42-12.69-29.75-20.55-48.91-20.54c-23.07,0.01-43.48,11.43-55.89,28.92C122.1,292.81,117.45,306.46,117.45,321.2z"/>
						</g>
					</g>
					<g>
						<g>
							<path fill="#C06934" d="M146.14,246.88c0,2.42,1.27,4.54,3.19,5.73c1.75-1.03,3.54-1.98,5.36-2.85
								c1.73-0.82,2.45-2.88,1.64-4.61c-0.83-1.72-2.89-2.44-4.61-1.63c-1.89,0.9-3.75,1.88-5.56,2.94
								C146.14,246.6,146.14,246.74,146.14,246.88z"/>
						</g>
						<g>
							<path fill="#E9975B" d="M148.2,245.97c0,3.73,3.03,6.76,6.76,6.75c3.73,0,6.76-3.03,6.75-6.76c0-3.73-3.03-6.76-6.76-6.75
								C151.22,239.21,148.19,242.24,148.2,245.97z"/>
						</g>
						<g>
							
								<ellipse transform="matrix(0.9064 -0.4224 0.4224 0.9064 -89.3967 88.4741)" fill="#C06934" cx="154.95" cy="245.97" rx="3.03" ry="3.03"/>
						</g>
					</g>
					<g>
						<g>
							<path fill="#C06934" d="M193.85,402.85c0,2.12,0.98,4.01,2.52,5.24c2.04-0.15,4.08-0.36,6.12-0.64c1.89-0.26,3.2-2,2.95-3.89
								c-0.26-1.89-2-3.2-3.89-2.95c-2.52,0.35-5.03,0.58-7.52,0.71C193.91,401.81,193.85,402.32,193.85,402.85z"/>
						</g>
						<g>
							<path fill="#E9975B" d="M196.35,401.9c0,3.73,3.03,6.76,6.76,6.75c3.73,0,6.76-3.03,6.75-6.76c0-3.73-3.03-6.76-6.76-6.75
								C199.37,395.14,196.35,398.17,196.35,401.9z"/>
						</g>
						<g>
							<path fill="#C06934" d="M203.11,404.92c1.67,0,3.03-1.36,3.03-3.03c0-1.67-1.36-3.03-3.03-3.03c-1.67,0-3.03,1.36-3.03,3.03
								C200.08,403.57,201.44,404.92,203.11,404.92z"/>
						</g>
					</g>
				</g>
				<g>
					<path fill="#E9975B" d="M184.59,404.93l0.01,14.82c0,1.91,1.55,3.45,3.45,3.45c1.9,0,3.45-1.54,3.45-3.45l-0.01-14.82
						c0-1.9-1.55-3.45-3.45-3.45C186.14,401.48,184.59,403.03,184.59,404.93z"/>
				</g>
				<path fill="#E9975B" d="M150.25,434.23l75.61-0.03c0-1.72-0.78-3.36-2.22-4.89c-5.25-5.58-19.2-9.57-35.59-9.56
					c-16.39,0.01-30.34,4-35.58,9.59C151.03,430.86,150.25,432.51,150.25,434.23z"/>
				<polygon fill="#C06934" points="184.56,408.14 184.56,412.34 191.5,412.34 191.49,408.3 184.59,408.14 				"/>
				<path fill="#C06934" d="M150.25,434.23l75.61-0.03c0-1.72-0.78-3.36-2.22-4.89l-71.17,0.03
					C151.03,430.86,150.25,432.51,150.25,434.23z"/>
				<g>
					<g>
						<g>
							<path fill="#00E0E8" d="M117.45,321.2c0,0.98,0.02,1.95,0.07,2.91c0.14-0.1,0.29-0.16,0.43-0.2c0.1-0.02,0.2-0.04,0.31-0.05
								c0.14-0.01,0.28-0.02,0.42-0.02c0.12-0.01,0.24-0.02,0.36-0.03c0.15-0.02,0.31-0.04,0.47-0.08c0.39-0.1,0.83-0.3,1.28-0.71
								c1.03-0.93,1.23-1.61,1.62-1.71c0.28-0.03,0.55,0.12,1.03,0.47c1.44,1.07-1.13,2.65-3.36,3.91c-2.23,1.25-0.7,3.67,1.61,5.55
								c1.45,1.18,2.52,1.72,3.73,1.61c0.17-0.01,0.34-0.04,0.51-0.09c0.55-0.13,1.14-0.39,1.82-0.8c2.43-1.41,1.27-4.4,1.03-5.65
								c-0.25-1.24,2.53-1.11,1.82-3.62c-0.7-2.5-0.17-3.9,0.54-4.2c0.81-0.08,2.34,3.21,1.35,4.54c-1.03,1.38-2.56,5.02-1.92,6.52
								c0.64,1.51-0.09,1.04-0.78,2.63c-0.7,1.59-1.33,1.98-3.16,3.14c-0.53,0.34-0.88,0.52-1.14,0.58
								c-0.65,0.08-0.78-0.49-1.54-1.42c-0.37-0.44-0.67-0.65-0.86-0.64c-0.37,0.1-0.31,1.07,0.34,2.79
								c0.88,2.37,2.73,2.75,3.65,2.66c1.15-0.14,2.8,1.35,4.17,2.57c1.42,1.26,1.4,1.73,0.37,3.71c-1.02,1.97-0.39,2.24,0.42,5.19
								c0.81,2.96,2.35,2.11,3.53,3.36c1.18,1.26,1.09,4.43,1.94,5.24c0.86,0.8,1.06,0.57,2.73,1.35c0.59,0.28,1.36,0.36,2.22,0.28
								c0.35-0.04,0.73-0.1,1.11-0.2c1.3-0.32,2.7-0.95,3.96-1.86c2.53-1.8,2.11-5.85,2-7.31c-0.1-1.46-1.74-5.05-0.57-6.34
								c1.15-1.29,0.66-3.54-0.41-7.56c-1.07-4.01-0.16-6.01,0.18-6.93c0.19-0.48,0.82-0.94,1.63-1.13
								c0.16-0.04,0.32-0.07,0.48-0.09c0.61-0.06,1.27,0.04,1.9,0.37c1.15,0.6,2.26,0.95,3.32,0.85c0.18-0.02,0.36-0.05,0.52-0.09
								c0.34-0.08,0.66-0.21,0.99-0.38c1.54-0.85,3.74-4.41,4.94-6.41c1.2-1.99-0.03-5.89-0.81-6.88c-0.78-1.01-4.04-2.71-5.38-3.57
								c-1.29-0.83,0.05-4.05-3.32-3.73c-0.14,0.02-0.29,0.04-0.44,0.06c-0.43,0.08-0.79,0.13-1.08,0.16
								c-2.31,0.22-0.51-0.82-3.81-0.87c-0.26,0-0.49,0.01-0.71,0.03c-0.26,0.02-0.49,0.06-0.71,0.12c-2.43,0.59-2.85,2.8-3.14,3.63
								c-0.27,0.77-1.71,2.05-3.33,2.45c-0.19,0.05-0.38,0.08-0.58,0.1c-0.24,0.02-0.47,0.03-0.7,0c-1.53-0.14-2.32-1-3.1-0.93
								c-0.37,0.09-0.63,0.26-0.92,0.59c-1.19,1.41-2.7,1.83-4.42,2.37c-1.68,0.19-1.48-1.6-1.11-2.99c0.41-1.53,3.47-1.2,3.6-2.66
								c0.13-1.45-2.77-2.47-4.26-2.59c-0.97,0.17-1.34,0.52-1.75,0.9c-0.39,0.36-0.83,0.74-1.43,0.89
								c-0.1,0.03-0.21,0.04-0.32,0.05c-2.02,0.04-1.74-2.41-1.19-3.25c0.28-0.42,0.83-0.8,1.43-0.95c0.11-0.02,0.22-0.04,0.34-0.05
								c0.49-0.05,1,0.06,1.42,0.41c0.29,0.25,0.48,0.33,0.65,0.32c0.46-0.11,0.75-0.81,2.03-1.32c0.21-0.09,0.37-0.15,0.52-0.18
								c1.04-0.12,0.51,0.89,1.79,1.21c1.55,0.4,0.42,1.27,1.05,2.07c0.25,0.32,0.43,0.38,0.63,0.36c0.38-0.1,0.57-0.14,0.72-0.16
								c0.13-0.01,0.23,0,0.34,0.03c0.64,0.18,0.77,0.77,1.06,0.74c0.83-0.72,0.77-1.6,0.64-2.57c-0.13-0.98,0.83-2.4,1.72-3.56
								c0.3-0.39,0.57-0.58,0.81-0.64c0.54-0.06,0.88,0.29,1.1,0.53c0.37,0.38-2.04,2.8-2.5,3.75c-0.46,0.95,0.53,1.24,1.45,1.43
								c0.76,0.16,0.99,1.09,1.14,1.09c0.28-0.72-0.06-3.08,0.26-3.87c0.32-0.79,1.8-1.27,3.13-1.77c0.12-0.03,0.24-0.05,0.35-0.06
								c1.03-0.11,1.22,0.71,2.06,0.66c0.99-0.06,1.54,0.7,1.99,1.48c0.38,0.68,1.12,1.99,2.66,1.84c0.13-0.01,0.27-0.04,0.4-0.07
								c0.12-0.03,0.24-0.07,0.37-0.11c2.09-0.74,1.77-2.99,1.38-4.44c-0.25-0.88-0.66-1.09-1.43-1.02
								c-0.33,0.04-0.72,0.12-1.19,0.24c-0.25,0.06-0.5,0.13-0.79,0.2c-0.13,0.03-0.26,0.05-0.37,0.06
								c-1.76,0.18-1.86-1.87-2.35-3.2c-0.5-1.42-4.81-3-6.44-4.14c-0.52-0.36-1.16-0.41-1.88-0.34c-0.39,0.04-0.81,0.12-1.23,0.19
								c-0.42,0.08-0.87,0.16-1.3,0.2c-0.81,0.08-1.61,0.04-2.34-0.33c-2.22-1.16-0.42-2.72-2.47-4.84
								c-2.05-2.11-1.86-2.99-0.56-3.54c1.18-0.14,0.79,1.7,2.88,2.15c2.34,0.5,1.44,5,2.36,5.48c0.14,0.08,0.29,0.11,0.45,0.09
								c1.07-0.25,2.3-1.47,3.82-2.31c1.91-1.06,2.62-4.67,0.62-5.61c-2-0.95-3.85-3.81-7.1-5.41c-0.8-0.39-1.53-0.5-2.2-0.43
								c-0.18,0.01-0.35,0.04-0.52,0.09c-0.18,0.04-0.35,0.1-0.5,0.16C122.1,292.81,117.45,306.46,117.45,321.2z"/>
						</g>
					</g>
				</g>
				<g>
					<g>
						<g>
							<g>
								<path fill="#00E0E8" d="M168.05,266.14c-0.25,0.02-0.52,0.06-0.79,0.09c-1.79,0.24-4.03,0.73-5.2,1.21
									c-1.58,0.65-1.5,1.69-4,2.47c-2.49,0.77-3.47,1.34-3.61,2.1c-0.15,0.76,2,1.59,3.91,3.32c1.9,1.73-0.47,1.61-1.01,2.68
									c-0.54,1.07,1.53,2.65,2.12,3.38c0.59,0.73-0.53,2.06,0.24,3.69c0.56,1.17,1.71,1.56,3.01,1.43
									c0.06-0.01,0.13-0.01,0.19-0.02c0.46-0.06,0.93-0.18,1.4-0.36c0.21-0.08,0.39-0.12,0.57-0.14c1.4-0.14,1.76,1.22,3.33,2.04
									c1.79,0.94,2.29,2.86,2.45,4.45c0.1,1.03,0.92,1.88,2.33,1.75c0.04,0,0.07-0.01,0.11-0.01c0.75-0.1,1.65-0.48,2.69-1.25
									c3.1-2.28,2.24-3.59,1.98-5.11c-0.26-1.51,0-1.86,0.81-2.78c0.81-0.92-0.02-2.98-0.26-4.75c-0.23-1.77,1.36-2.79,3.16-5.52
									c0.72-1.08,1.17-1.44,1.69-1.51c0.43-0.04,0.85,0.06,1.44,0.15c0.59,0.09,1.34,0.16,2.39,0.06
									c0.08-0.01,0.16-0.02,0.24-0.03c0.07-0.01,0.14-0.01,0.2-0.02c3.56-0.48,1.52-1.84,0.65-2.88c-0.88-1.06-2.9,0.02-4.41-1.58
									c-1.12-1.18-1.61-1.73-3.07-1.59c-0.07,0.01-0.15,0.02-0.22,0.03c-0.47,0.06-1.04,0.19-1.74,0.38
									c-0.52,0.14-0.99,0.23-1.42,0.29c-0.12,0.02-0.24,0.03-0.36,0.04c-1.98,0.19-2.94-0.34-2.99-0.37
									c-0.05,0.01-0.09,0.02-0.14,0.03c-1.29,0.13-3.14-1.77-4.78-1.73C168.67,266.09,168.37,266.11,168.05,266.14z"/>
							</g>
						</g>
						<g>
							<g>
								<path fill="#00E0E8" d="M191.57,266.03c-0.19,0.02-0.38,0.04-0.58,0.07c-1.6,0.22-3.07,0.64-3.48,0.84
									c-0.52,0.26-0.21,0.71,1.41,1.67c0.72,0.43,1.15,0.49,1.56,0.45c0.04,0,0.07-0.01,0.11-0.01c0.11-0.01,0.22-0.04,0.33-0.05
									c0.12-0.02,0.23-0.05,0.36-0.06c0.05-0.01,0.09-0.01,0.14-0.02c0.27-0.03,0.59-0.03,0.99,0.04c1.7,0.26,0.98,1.48,0.95,1.55
									c-0.03,0.05-0.54,1,0.64,2.52c0.91,1.16,1.98,1.54,3.51,1.39c0.1-0.01,0.2-0.02,0.3-0.04c0.38-0.05,0.78-0.13,1.22-0.23
									c2.39-0.57,2.13-3.02,1.79-4.65c-0.34-1.63-2.1-1.83-3.44-3.07c-0.79-0.73-1.7-0.78-2.73-0.68
									c-0.27,0.03-0.54,0.06-0.83,0.1c-0.28,0.04-0.57,0.07-0.87,0.1c-0.21,0.02-0.42,0.04-0.64,0.04
									C192.08,265.98,191.82,266,191.57,266.03z"/>
							</g>
						</g>
						<g>
							<g>
								<path fill="#00E0E8" d="M197.02,275.07c-0.05,0.01-0.11,0.01-0.16,0.02c-1.31,0.18-2.39,0.92-2.45,0.96
									c-0.21-0.22-0.53-0.31-0.91-0.27c-0.02,0-0.05,0.01-0.07,0.01c-0.65,0.09-1.44,0.53-2.09,1.3c-1.07,1.26-1.11,2.32-3.1,4.14
									c-1.98,1.82-1.06,1.32-1.27,2.53c-0.21,1.21,1.12,0.97,1.56,1.97c0.44,0.99-1.4,2.98-0.08,3.61
									c0.18,0.08,0.39,0.11,0.62,0.09c0.02,0,0.03,0,0.05-0.01c1.49-0.2,3.82-2.35,4.57-3.83c0.88-1.73,0.18-2.82,0.79-3.83
									c0.32-0.54,0.69-0.72,1.33-0.8c0.07-0.01,0.15-0.02,0.23-0.03c0.25-0.02,0.53-0.04,0.85-0.06c0.31-0.02,0.66-0.04,1.06-0.08
									c0.09-0.01,0.18-0.02,0.28-0.03c0.03-0.01,0.07-0.01,0.11-0.01c2.25-0.3,2.21-2.24,2.48-3.44c0.27-1.22-0.09-0.67-1.98-1.84
									C198.27,275.1,197.63,275.02,197.02,275.07z"/>
							</g>
						</g>
						<g>
							<g>
								<g>
									<path fill="#00E0E8" d="M179.44,352.59c2.33,2.66,0.83,5.34,3.17,8.02c0.77,0.89,1.3,1.1,1.77,1.05
										c0.33-0.04,0.58-0.18,0.85-0.32c0.27-0.14,0.54-0.28,0.87-0.32c0.43-0.05,0.88,0.04,1.44,0.4
										c2.44,1.53,4.02,4.18,4.59,6.57c0.57,2.4,8.32,5.84,9.44,8.66c1.12,2.83-3.19,5.77-2.09,6.62c0.2,0.16,0.49,0.21,0.84,0.17
										c1.66-0.22,4.27-1.89,5.73-2.79c1.83-1.11,1.16-5.28,1.13-5.49c-0.79-4.98-0.66-4-2.62-5.73c-1.96-1.72-1.2-8.04-2.15-12.5
										c-0.97-4.47,0.19-4.12,3.33-6.53c3.13-2.42,0.89-9.06,0.86-11.17c-0.04-2.11-2.75-3.98-2.89-4.08
										c1.65-3.45,5.48-7.07,8.37-7.71c2.88-0.63,2.68-5.82,2.33-7.51c-0.35-1.7,5.29-8.54,6.42-9.43
										c0.24-0.19,0.49-0.32,0.73-0.35c0.9-0.09,1.47,1.02-0.22,4.23c-1.73,3.28-1.43,3.57-1.23,3.55
										c6.06-3.44,6.49-8.59,5.27-13.15c-1.22-4.55-4.02-7.9-1.44-10.86c2.57-2.95,5.55-5.71,8.02-8.41
										c1.19-1.28,2.55-2.05,3.96-2.24c1.68-0.17,3.2,0.34,4.61,1.59c1.39,1.22,3.21,2.06,4.8,2.24
										c-2.9-5.06-6.44-9.7-10.51-13.84c-0.75,0.33-1.42,0.7-1.93,1.09c-2.7,2.04-4.46,3.34-4.55,3.4
										c-1.47,0.14-1.56-0.59-2.41-1.35c-0.52-0.46-2.4-0.32-4.13-0.15c-0.15,0.01-0.3,0.02-0.43,0.04
										c-1.05,0.1-1.76,0.17-2.23,0.16c-1.91,0.23-3.9,1.99-4.97,3.52c-1.14,1.65-5.08,1.81-7.98,2.32
										c-2.89,0.29-2.76-2.33-2.58-4.5c0.04-0.48-0.03-0.69-0.19-0.67c-0.6,0.08-2.29,2.97-3.53,5.28
										c-1.59,2.94,0.28,2.07,4.91,5.29c4.63,3.22-2.5,6.29-4.05,8.62c-0.51,0.76-0.99,1.16-1.44,1.23
										c-0.94,0.09-1.74-1.24-2.51-3.93c-0.65-2.28-2.19-2.8-4.15-2.6c-0.12,0.01-0.24,0.02-0.36,0.04
										c-1.46,0.19-3.13,0.73-4.82,1.21c-4.17,1.17-4.19,5.65-1.88,9.07c0.72,1.06,1.36,1.34,1.97,1.28
										c0.49-0.07,0.92-0.3,1.35-0.52c0.42-0.23,0.87-0.45,1.32-0.51c0.52-0.05,1,0.07,1.51,0.5c2.38,2.02,3.31,4.43,5.15,6.17
										c1.83,1.73-0.21,1.26,1.92,3.34c2.13,2.07,2.09,0.83,3.45,3.63c1.36,2.8-2.56,3.94-1.48,4.67c0.13,0.09,0.3,0.12,0.48,0.1
										c0.66-0.09,1.55-0.69,2.6-1.31c1.05-0.62,2.27-1.26,3.58-1.44c3.52-0.22,3.6,5.25,2.09,5.45c-0.24,0-0.41,0.01-0.58,0.02
										c-1.49,0.2-2.61,1.11-3.28,3.34c-0.66,2.23-2.33,5.69-6.61,6.26c-0.11,0.02-0.22,0.03-0.34,0.04
										c-0.6,0.06-1.26,0.06-1.97,0c-0.81-0.08-1.48-0.08-2.06-0.02c-0.09,0.01-0.18,0.02-0.27,0.03
										c-3.45,0.46-3.18,3.09-7.08,3.61c-4.61,0.62-5.38,1.35-5.54,2.99c-0.16,1.63-3.56,3.96-5.27,7.78
										C174.84,350.59,177.1,349.91,179.44,352.59z"/>
								</g>
							</g>
						</g>
					</g>
				</g>
				<g opacity="0.3">
					<path fill="#0074FA" d="M117.45,321.2c0,0.98,0.02,1.95,0.07,2.91c1.53,36.46,31.58,65.55,68.42,65.54
						c37.81-0.01,68.46-30.68,68.44-68.49c0-12.4-3.3-24.03-9.07-34.05c-2.9-5.06-6.44-9.7-10.51-13.84
						c-12.42-12.69-29.75-20.55-48.91-20.54c-1.37,0-2.74,0.04-4.09,0.12c10.47,2.2,19.8,7.48,27.01,14.84
						c3.17,3.22,5.92,6.84,8.18,10.78c4.5,7.8,7.07,16.85,7.07,26.51c0.01,29.43-23.85,53.31-53.29,53.32
						c-26.85,0.01-49.08-19.85-52.79-45.69C117.63,315.41,117.45,318.28,117.45,321.2z"/>
				</g>
			</g>
		</g>
		<g>
			<ellipse opacity="0.5" fill="#5A97E9" cx="279.86" cy="450.88" rx="63.01" ry="16.05"/>
			<g>
				<linearGradient id="SVGID_16_" gradientUnits="userSpaceOnUse" x1="288.5989" y1="410.5039" x2="276.7893" y2="399.5379">
					<stop  offset="0" style="stop-color:#F86D28"/>
					<stop  offset="1" style="stop-color:#EA3725"/>
				</linearGradient>
				<path fill="url(#SVGID_16_)" d="M282.43,415.01c-18.78-25.25-26.39-53.3-26.39-53.3l0.03,24.38c0,0,16.02,26.83,21.6,32.81
					C279.88,418.9,282.43,417.9,282.43,415.01z"/>
				<g>
					<g>
						<g>
							<linearGradient id="SVGID_17_" gradientUnits="userSpaceOnUse" x1="296.0121" y1="436.7665" x2="357.8719" y2="466.0093">
								<stop  offset="0" style="stop-color:#031A2F"/>
								<stop  offset="1" style="stop-color:#00446F"/>
							</linearGradient>
							<path fill="url(#SVGID_17_)" d="M248.54,422.96c0,0,26.32-11.71,38.26-8.81c11.95,2.9,38.31,30.12,38.31,30.12
								c0.34,2.99-1.61,5.05-4.88,6.58c0,0-21.68-12.97-35-25.76c0,0-22.84,12.4-35.43,8.44
								C248.58,433.14,245.33,426.39,248.54,422.96z"/>
						</g>
					</g>
					<path fill="#D2D2D2" d="M319.99,450.81c0,0,0.23,0.81,1.32,1.68c1.1,0.88,4.96,3.8,4.96,3.8l14.8-18.46
						c0,0-2.82-2.37-6.23-1.27c-3.41,1.11-4.79,5.91-9.95,7.41C324.9,443.98,325,445.57,319.99,450.81z"/>
				</g>
				<g>
					<linearGradient id="SVGID_18_" gradientUnits="userSpaceOnUse" x1="244.1514" y1="356.0348" x2="255.3987" y2="310.2022">
						<stop  offset="0" style="stop-color:#031A2F"/>
						<stop  offset="1" style="stop-color:#00446F"/>
					</linearGradient>
					<path fill="url(#SVGID_18_)" d="M264.29,340.41c0.21-2.06-0.31-9.2-0.9-11.13c-1.41-4.58-5.58-9.78-15.15-10.13
						c-11.3-0.41-17.57,7.89-17.29,20.01c0,0-4.28,0.78-4.79,5.65c-0.5,4.87,2.54,3.86,2.54,3.86s-2.46,1.36-3.64,4.66
						c-0.81,2.26,1.48,7.45,5.15,6.64c0,0,0.6,4.36,4.44,4.15c3.83-0.22,3.64-2.66,3.64-2.66s5.61,3.96,8.56,3.45
						c2.95-0.51,3.22-3.5,3.22-3.5s2.91,4.03,6.15,2.71c3.24-1.32,3.44-5.46,3.44-5.46s4.03,0.71,5.24-2.42
						c1.21-3.13-2.2-7.26-2.2-7.26s2.67,0.1,3.38-1.55C267.62,343.84,264.29,340.41,264.29,340.41z"/>
				</g>
				<g>
					<g>
						<path fill="#FDB491" d="M248.78,354.83l-0.5,2.79l-0.56,3.16l-0.48,2.73c-1.61,0.91-3.47,0.67-5.08,0.1
							c-2.16-0.77-3.87-2.15-3.87-2.15l0.02-0.22l0.08-1.03l0.57-6.97l0.12-1.46c0.87-0.44,2.24-0.12,3.69,0.43
							c1.43,0.54,2.93,1.31,4.11,1.79C248.01,354.46,248.78,354.83,248.78,354.83z"/>
					</g>
					<g>
						<path fill="#EF887A" d="M248.78,354.83l-1.06,5.95c-3.94-1.42-6.66-7.45-6.66-7.45l5.82,0.66
							C248.01,354.46,248.78,354.83,248.78,354.83z"/>
					</g>
					<g>
						<path fill="#FDB491" d="M255.16,357.4c-2.32,0.73-4.67,0.69-6.87,0.23c-2.11-0.44-4.08-1.26-5.8-2.18
							c-1.36-0.73-2.56-1.51-3.52-2.21c-0.78-0.57-1.42-1.08-1.87-1.46c-0.48-0.41-0.75-0.67-0.75-0.67s-0.1-1.5-0.07-3.67
							c0.03-2.31,0.2-5.39,0.77-8.23c0.68-3.41,1.93-6.48,4.2-7.53l3.71,0.03l17.58,0.16c0,0,0.02,0.27,0.05,0.74
							c0.06,1.04,0.14,3.08,0.08,5.56c0,0.19-0.01,0.37-0.02,0.57C262.43,345.64,261.05,355.55,255.16,357.4z"/>
					</g>
					<g>
						<linearGradient id="SVGID_19_" gradientUnits="userSpaceOnUse" x1="236.2736" y1="351.0655" x2="238.9889" y2="351.0655">
							<stop  offset="0" style="stop-color:#031A2F"/>
							<stop  offset="1" style="stop-color:#00446F"/>
						</linearGradient>
						<path fill="url(#SVGID_19_)" d="M238.34,354.7c-0.48-0.41-2-3.59-2-3.59s-0.1-1.5-0.07-3.67l1.58,0.88
							C237.86,348.32,240.04,353.44,238.34,354.7z"/>
					</g>
					<g>
						<g>
							<g>
								<path fill="#FDB491" d="M239.99,341.35c0,0-2.16-3.57-4.62-1.61c-2.71,2.16-1.49,9.78,3.91,9.73L239.99,341.35z"/>
							</g>
						</g>
					</g>
					<g>
						<linearGradient id="SVGID_20_" gradientUnits="userSpaceOnUse" x1="244.8471" y1="356.2056" x2="256.0945" y2="310.3728">
							<stop  offset="0" style="stop-color:#031A2F"/>
							<stop  offset="1" style="stop-color:#00446F"/>
						</linearGradient>
						<path fill="url(#SVGID_20_)" d="M262.59,332.6c-0.05,2.27-4.03,4.54-18.56,4.67c0,0-0.01,6.69-2.87,6.09
							c-0.68-0.15-1.35-3.98-4.12-4.16c0.68-3.41,1.93-6.48,4.2-7.53l21.29,0.2C262.54,331.86,262.57,332.13,262.59,332.6z"/>
					</g>
					<g>
						<linearGradient id="SVGID_21_" gradientUnits="userSpaceOnUse" x1="238.024" y1="354.5311" x2="249.2713" y2="308.6983">
							<stop  offset="0" style="stop-color:#031A2F"/>
							<stop  offset="1" style="stop-color:#00446F"/>
						</linearGradient>
						<path fill="url(#SVGID_21_)" d="M245.44,332.47c0,0-1.71,10.02-2.67,19.73c-0.11,1.09-0.2,2.18-0.29,3.24
							c-0.19,2.46-2.05,5.26-4.17,5.79l0.65-8.01c-0.79-0.57-1.42-1.08-1.87-1.46c-0.48-0.41-0.75-0.67-0.75-0.67
							s-0.09-1.5-0.06-3.67c0.03-2.31,0.2-5.39,0.77-8.23c0.68-3.41,1.93-6.48,4.21-7.53l3.71,0.03
							C245.37,332.07,245.44,332.47,245.44,332.47z"/>
					</g>
				</g>
				<g>
					<g>
						<g>
							<linearGradient id="SVGID_22_" gradientUnits="userSpaceOnUse" x1="268.9005" y1="468.8028" x2="269.2754" y2="432.4368">
								<stop  offset="0" style="stop-color:#031A2F"/>
								<stop  offset="1" style="stop-color:#00446F"/>
							</linearGradient>
							<path fill="url(#SVGID_22_)" d="M226.95,424.98c0,0,32.86-2.79,45.04-1.14c12.18,1.65,41.22,26,41.22,26
								c0.64,2.94-1.08,5.19-4.17,7.05c0,0-22.91-10.66-37.48-22.01c0,0-25.19,12.95-38.3,11.45
								C222.94,445.15,224.19,429.28,226.95,424.98z"/>
						</g>
					</g>
					<path fill="#FFFFFF" d="M308.79,456.87c0,0,0.31,0.78,1.49,1.54c1.18,0.76,5.33,3.27,5.33,3.27l12.82-19.89
						c0,0-3.05-2.07-6.33-0.61c-3.28,1.45-4.15,6.37-9.14,8.4C312.96,449.57,313.23,451.15,308.79,456.87z"/>
				</g>
				<g>
					<linearGradient id="SVGID_23_" gradientUnits="userSpaceOnUse" x1="243.2119" y1="408.8424" x2="245.7426" y2="455.5185">
						<stop  offset="0" style="stop-color:#F86D28"/>
						<stop  offset="1" style="stop-color:#EA3725"/>
					</linearGradient>
					<path fill="url(#SVGID_23_)" d="M255.24,402.35c-0.49,8.59,1.09,13.58,3.55,20.96c-14.52,5.15-21.16,7.14-33.18,5.19
						c-0.42-7.06-1.61-19.36-1.4-26.76c0.61-22.01,3.11-36.14,3.11-36.14l6.04-2.34l6.19-2.39l10.51,0.53l2.21,0.11l3.76,0.19
						c0,0,0.48,10.72,3.81,19.92c2.7,7.48-0.4,8.99-2.09,10.77c-0.07,0.07-0.13,0.14-0.19,0.21c-0.24,0.28-0.44,0.56-0.58,0.88
						c-0.04,0.1-0.08,0.2-0.12,0.31c-0.1,0.28-0.2,0.6-0.3,0.94C255.74,397.66,255.24,402.35,255.24,402.35z"/>
					<g>
						<linearGradient id="SVGID_24_" gradientUnits="userSpaceOnUse" x1="247.6723" y1="412.8096" x2="248.2347" y2="402.9682">
							<stop  offset="0" style="stop-color:#F86D28"/>
							<stop  offset="1" style="stop-color:#EA3725"/>
						</linearGradient>
						<path fill="url(#SVGID_24_)" d="M257.75,392.4c-0.07,0.07-0.13,0.14-0.19,0.21c-0.24,0.28-0.44,0.56-0.58,0.88
							c-0.04,0.1-0.08,0.2-0.12,0.31c-2.63,1.14-8.2,3.08-15.69,3.08c-0.34,0-0.68,0-1.03-0.01c-0.25-0.01-0.44-0.21-0.44-0.46
							c0.01-0.24,0.2-0.43,0.44-0.43h0.01C249.55,396.21,256.21,393.18,257.75,392.4z"/>
					</g>
					<path fill="#FDB491" d="M250.07,361.41c-0.41,3.96-0.35,10.61-5.34,10.74c-6,0.16-10.02-6.34-11.36-8.88l6.19-2.39
						L250.07,361.41z"/>
				</g>
				<g>
					<linearGradient id="SVGID_25_" gradientUnits="userSpaceOnUse" x1="274.7951" y1="407.425" x2="244.9898" y2="393.9283">
						<stop  offset="0" style="stop-color:#F86D28"/>
						<stop  offset="1" style="stop-color:#EA3725"/>
					</linearGradient>
					<path fill="url(#SVGID_25_)" d="M271.28,418.01c-7.71-4.3-24.18-13.89-24.18-13.89s-9.2-11.43-19.78-38.52
						c0,0-5.35,4.78-2.23,19.22c3.13,14.44,16.47,27.79,16.47,27.79s18.02,8.96,26.01,9.55L271.28,418.01z"/>
				</g>
				<g>
					<path fill="#FFFFFF" d="M302.97,422.08l-52.35,5.24c-1.18,0.12-2.24-0.74-2.36-1.93l0,0c-0.12-1.18,0.74-2.24,1.93-2.36
						l52.35-5.24c1.18-0.12,2.24,0.74,2.36,1.93v0C305.01,420.91,304.15,421.97,302.97,422.08z"/>
					<g>
						<g>
							<path fill="#FFFFFF" d="M302.23,422.15L302.23,422.15l-46.33,4.49l10.79-24.8c0.47-1.08,1.49-1.82,2.66-1.94l3.04-0.3
								l-13.61,26.74L302.23,422.15z"/>
							<path fill="#D2D2D2" d="M303.05,422.07l-38.34,3.71c-2.66,0.26-4.62-2.44-3.55-4.89l8.35-19.19
								c0.51-1.17,1.61-1.97,2.88-2.09l38.34-3.71c2.66-0.26,4.62,2.44,3.55,4.89l-8.35,19.19
								C305.42,421.15,304.32,421.95,303.05,422.07z"/>
						</g>
						<linearGradient id="SVGID_26_" gradientUnits="userSpaceOnUse" x1="287.4555" y1="419.1994" x2="289.0723" y2="411.0451">
							<stop  offset="0" style="stop-color:#031A2F"/>
							<stop  offset="1" style="stop-color:#00446F"/>
						</linearGradient>
						<path opacity="0.5" fill="url(#SVGID_26_)" d="M292.08,410.49c0.16,1.63-1.03,3.08-2.66,3.25c-1.63,0.16-3.08-1.03-3.25-2.66
							c-0.16-1.63,1.03-3.08,2.66-3.25C290.46,407.67,291.91,408.86,292.08,410.49z"/>
					</g>
				</g>
			</g>
		</g>
		<g>
			<path opacity="0.5" fill="#5A97E9" d="M502.59,434.24l-24.72-27.64H343.81c-2.1,0.85-2.99,3.56-1.5,5.52l15.07,19.78
				c4,5.25,10.23,8.34,16.84,8.34h125.69C503.02,440.24,504.66,436.56,502.59,434.24z"/>
			<g>
				<g>
					<g>
						<g>
							<linearGradient id="SVGID_27_" gradientUnits="userSpaceOnUse" x1="414.1334" y1="388.9977" x2="414.716" y2="421.6261">
								<stop  offset="0" style="stop-color:#F86D28"/>
								<stop  offset="1" style="stop-color:#EA3725"/>
							</linearGradient>
							<path fill="url(#SVGID_27_)" d="M342.49,395.24c1.75,6.43,22.5,27.96,26.94,32.52c2.96,3.76,7.5,6.23,12.61,6.38
								c0.08,0.01,0.16,0.01,0.25,0.01h102.08c1.3,0,2.37-1.07,2.37-2.37c0-1.3-1.07-2.37-2.37-2.37H382.55
								c-6.59,0-11.95-5.36-11.95-11.95s5.36-11.95,11.95-11.95h101.81c1.3,0,2.37-1.07,2.37-2.37c0-1.3-1.07-2.37-2.37-2.37h-0.15
								l0.4-0.81l-42.73-22.8h-85.79C356.09,377.18,338.16,379.31,342.49,395.24z"/>
						</g>
					</g>
					<path opacity="0.2" d="M370.96,412.25c0.05-0.1,0.09-0.19,0.14-0.29c2-3.85,5.93-6.3,10.25-6.43c0.39-0.04,0.79-0.06,1.2-0.06
						h101.82c1.28,0,2.33-1.02,2.37-2.27H382.54C376.96,403.21,372.26,407.06,370.96,412.25z"/>
					<g>
						<path fill="#FFFFFF" d="M381.7,429.42h102.67v-23.89H381.7c-4.46,0-8.54,2.48-10.6,6.43h0c-1.8,3.45-1.8,7.57,0,11.02l0,0
							C373.16,426.94,377.24,429.42,381.7,429.42z"/>
					</g>
					<g>
						<g>
							<g>
								<path fill="#D2D2D2" d="M484.36,412.75H382.98c-0.44,0-0.8-0.36-0.8-0.8c0-0.44,0.36-0.8,0.8-0.8h101.38V412.75z"/>
							</g>
						</g>
						<g>
							<g>
								<path fill="#D2D2D2" d="M484.36,418.27H382.98c-0.44,0-0.8-0.36-0.8-0.8s0.36-0.8,0.8-0.8h101.38V418.27z"/>
							</g>
						</g>
						<g>
							<g>
								<path fill="#D2D2D2" d="M484.36,423.79H382.98c-0.44,0-0.8-0.36-0.8-0.8c0-0.44,0.36-0.8,0.8-0.8h101.38V423.79z"/>
							</g>
						</g>
					</g>
				</g>
				<g>
					<g>
						<linearGradient id="SVGID_28_" gradientUnits="userSpaceOnUse" x1="409.2928" y1="397.0261" x2="414.5367" y2="375.468">
							<stop  offset="0" style="stop-color:#0074FA"/>
							<stop  offset="1" style="stop-color:#20ADFF"/>
						</linearGradient>
						<path fill="url(#SVGID_28_)" d="M342.24,361.68c1.83,6.74,24.56,30.09,27.46,33.06c2.96,3.57,7.38,5.89,12.34,6.04
							c0.08,0.01,0.16,0.01,0.25,0.01h102.08c1.3,0,2.37-1.07,2.37-2.37c0-1.3-1.07-2.37-2.37-2.37H382.55
							c-6.59,0-11.95-5.36-11.95-11.95c0-6.59,5.36-11.95,11.95-11.95h101.81c1.3,0,2.37-1.07,2.37-2.37c0-1.3-1.07-2.37-2.37-2.37
							h-0.49l0.49-1l-42.73-22.8h-85.79C355.84,343.62,337.91,345.74,342.24,361.68z"/>
					</g>
					<path opacity="0.2" d="M370.96,378.87c0.04-0.09,0.09-0.19,0.14-0.28c2.02-3.89,6.01-6.35,10.38-6.43
						c0.35-0.03,0.71-0.05,1.07-0.05h101.82c1.28,0,2.33-1.02,2.37-2.27H382.54C376.97,369.85,372.27,373.69,370.96,378.87z"/>
					<g>
						<path fill="#FFFFFF" d="M381.7,396.05h102.67v-23.89H381.7c-4.46,0-8.54,2.48-10.6,6.43v0c-1.8,3.45-1.8,7.57,0,11.02l0,0
							C373.16,393.57,377.24,396.05,381.7,396.05z"/>
					</g>
					<g>
						<g>
							<g>
								<path fill="#D2D2D2" d="M484.36,379.38H382.98c-0.44,0-0.8-0.36-0.8-0.8c0-0.44,0.36-0.8,0.8-0.8h101.38V379.38z"/>
							</g>
						</g>
						<g>
							<g>
								<path fill="#D2D2D2" d="M484.36,384.9H382.98c-0.44,0-0.8-0.36-0.8-0.8c0-0.44,0.36-0.8,0.8-0.8h101.38V384.9z"/>
							</g>
						</g>
						<g>
							<g>
								<path fill="#D2D2D2" d="M484.36,390.42H382.98c-0.44,0-0.8-0.36-0.8-0.8s0.36-0.8,0.8-0.8h101.38V390.42z"/>
							</g>
						</g>
					</g>
				</g>
				<g>
					<g>
						<path fill="#FFFFFF" d="M381.7,362.68h102.67v-23.89H381.7c-4.46,0-8.54,2.48-10.6,6.43l0,0c-1.8,3.45-1.8,7.57,0,11.02l0,0
							C373.16,360.2,377.24,362.68,381.7,362.68z"/>
					</g>
					<g>
						<linearGradient id="SVGID_29_" gradientUnits="userSpaceOnUse" x1="419.3944" y1="316.5939" x2="413.5679" y2="352.7183">
							<stop  offset="0" style="stop-color:#FFCC33"/>
							<stop  offset="1" style="stop-color:#FFB800"/>
						</linearGradient>
						<path fill="url(#SVGID_29_)" d="M343.68,329.8c1.24,4.55,11.96,16.62,19.7,24.93c0.07,0.07,0.14,0.15,0.21,0.22
							c0.11,0.12,0.21,0.22,0.31,0.33c2.4,2.57,4.47,4.73,5.84,6.13c0.02,0.03,0.05,0.05,0.08,0.08c0.81,0.84,1.36,1.4,1.54,1.59
							c0.03,0.03,0.06,0.06,0.07,0.07c0.01,0.01,0.01,0.01,0.01,0.01c2.83,2.54,6.53,4.11,10.59,4.23c0.08,0.01,0.17,0.02,0.24,0.02
							h102.08c1.31,0,2.37-1.06,2.37-2.37c0-1.3-1.06-2.37-2.37-2.37H382.54c-5.1,0-9.46-3.2-11.17-7.72
							c-0.5-1.31-0.77-2.73-0.77-4.23c0-1.17,0.17-2.31,0.49-3.37c0-0.01,0-0.02,0.01-0.03c1.47-4.93,6.05-8.55,11.45-8.55h101.82
							c1.28,0,2.32-1.02,2.37-2.27v-0.1c0-0.76-0.37-1.44-0.93-1.88l-0.01-0.01c-0.21-0.16-0.45-0.28-0.7-0.37l-0.03-0.01
							l-41.99-22.41h-85.79C357.29,311.74,339.35,313.86,343.68,329.8z"/>
					</g>
					<path opacity="0.2" d="M370.6,348.46c0,0.23,0.01,0.47,0.02,0.7c0.01,0.06,0.01,0.1,0.01,0.1c0.09-0.69,0.24-1.33,0.46-1.9
						c0-0.01,0-0.02,0.01-0.03c1.47-4.93,6.05-8.55,11.45-8.55h101.82c1.28,0,2.32-1.02,2.37-2.27H382.54
						C375.96,336.51,370.6,341.88,370.6,348.46z"/>
					<g>
						<g>
							<g>
								<path fill="#D2D2D2" d="M484.36,346.01H382.98c-0.44,0-0.8-0.36-0.8-0.8c0-0.44,0.36-0.8,0.8-0.8h101.38V346.01z"/>
							</g>
						</g>
						<g>
							<g>
								<path fill="#D2D2D2" d="M484.36,351.53H382.98c-0.44,0-0.8-0.36-0.8-0.8s0.36-0.8,0.8-0.8h101.38V351.53z"/>
							</g>
						</g>
						<g>
							<g>
								<path fill="#D2D2D2" d="M484.36,357.05H382.98c-0.44,0-0.8-0.36-0.8-0.8c0-0.44,0.36-0.8,0.8-0.8h101.38V357.05z"/>
							</g>
						</g>
					</g>
				</g>
			</g>
		</g>
	</g>
</g>
</svg>
