<?xml version="1.0" encoding="utf-8"?>
<!-- Generator: Adobe Illustrator 24.3.0, SVG Export Plug-In . SVG Version: 6.00 Build 0)  -->
<svg version="1.1" id="Layer_1" xmlns="http://www.w3.org/2000/svg" xmlns:xlink="http://www.w3.org/1999/xlink" x="0px" y="0px"
	 viewBox="0 0 512 512" enable-background="new 0 0 512 512" xml:space="preserve">
<g>
	<g>
		<path fill="#002147" d="M312.26,431.25H199.71c-5.17,0-9.37-4.19-9.37-9.37l0,0c0-5.17,4.19-9.37,9.37-9.37h112.56
			c5.17,0,9.37,4.19,9.37,9.37l0,0C321.63,427.05,317.43,431.25,312.26,431.25z"/>
		<path fill="#002147" d="M302.76,462.8h-93.55c-5.17,0-9.37-4.19-9.37-9.37v0c0-5.17,4.19-9.37,9.37-9.37h93.55
			c5.17,0,9.37,4.19,9.37,9.37v0C312.13,458.61,307.93,462.8,302.76,462.8z"/>
		<path fill="#002147" d="M231.62,493.5h48.73c7.53,0,13.64-6.11,13.64-13.64h-76.01C217.98,487.39,224.09,493.5,231.62,493.5z"/>
	</g>
	<g>
		<g>
			<g>
				
					<line fill="none" stroke="#FFB000" stroke-width="4" stroke-linecap="round" stroke-miterlimit="10" x1="255.98" y1="58.86" x2="255.98" y2="18.5"/>
				
					<line fill="none" stroke="#FFB000" stroke-width="4" stroke-linecap="round" stroke-miterlimit="10" x1="415.67" y1="218.55" x2="456.03" y2="218.55"/>
			</g>
			<g>
				
					<line fill="none" stroke="#FFB000" stroke-width="4" stroke-linecap="round" stroke-miterlimit="10" x1="96.33" y1="215.54" x2="55.97" y2="215.54"/>
			</g>
		</g>
		<g>
			<g>
				
					<line fill="none" stroke="#FFB000" stroke-width="4" stroke-linecap="round" stroke-miterlimit="10" x1="255.98" y1="58.86" x2="255.98" y2="18.5"/>
				
					<line fill="none" stroke="#FFB000" stroke-width="4" stroke-linecap="round" stroke-miterlimit="10" x1="415.67" y1="218.55" x2="456.03" y2="218.55"/>
			</g>
			<g>
				
					<line fill="none" stroke="#FFB000" stroke-width="4" stroke-linecap="round" stroke-miterlimit="10" x1="96.33" y1="215.54" x2="55.97" y2="215.54"/>
			</g>
		</g>
	</g>
	<g>
		<g>
			<g>
				
					<line fill="none" stroke="#FFB000" stroke-width="4" stroke-linecap="round" stroke-miterlimit="10" x1="255.98" y1="58.86" x2="255.98" y2="18.5"/>
				
					<line fill="none" stroke="#FFB000" stroke-width="4" stroke-linecap="round" stroke-miterlimit="10" x1="415.67" y1="218.55" x2="456.03" y2="218.55"/>
			</g>
			<g>
				
					<line fill="none" stroke="#FFB000" stroke-width="4" stroke-linecap="round" stroke-miterlimit="10" x1="96.33" y1="215.54" x2="55.97" y2="215.54"/>
			</g>
		</g>
		<g>
			<g>
				
					<line fill="none" stroke="#FFB000" stroke-width="4" stroke-linecap="round" stroke-miterlimit="10" x1="255.98" y1="58.86" x2="255.98" y2="18.5"/>
				
					<line fill="none" stroke="#FFB000" stroke-width="4" stroke-linecap="round" stroke-miterlimit="10" x1="415.67" y1="218.55" x2="456.03" y2="218.55"/>
			</g>
			<g>
				
					<line fill="none" stroke="#FFB000" stroke-width="4" stroke-linecap="round" stroke-miterlimit="10" x1="96.33" y1="215.54" x2="55.97" y2="215.54"/>
			</g>
		</g>
	</g>
	<g>
		<g>
			<g>
				
					<line fill="none" stroke="#FFB000" stroke-width="4" stroke-linecap="round" stroke-miterlimit="10" x1="176.9" y1="80.06" x2="156.71" y2="45.11"/>
				
					<line fill="none" stroke="#FFB000" stroke-width="4" stroke-linecap="round" stroke-miterlimit="10" x1="395.03" y1="138.51" x2="429.99" y2="118.33"/>
			</g>
			<g>
				
					<line fill="none" stroke="#FFB000" stroke-width="4" stroke-linecap="round" stroke-miterlimit="10" x1="116.97" y1="295.57" x2="82.01" y2="315.76"/>
			</g>
		</g>
		<g>
			<g>
				
					<line fill="none" stroke="#FFB000" stroke-width="4" stroke-linecap="round" stroke-miterlimit="10" x1="176.9" y1="80.06" x2="156.71" y2="45.11"/>
				
					<line fill="none" stroke="#FFB000" stroke-width="4" stroke-linecap="round" stroke-miterlimit="10" x1="395.03" y1="138.51" x2="429.99" y2="118.33"/>
			</g>
			<g>
				
					<line fill="none" stroke="#FFB000" stroke-width="4" stroke-linecap="round" stroke-miterlimit="10" x1="116.97" y1="295.57" x2="82.01" y2="315.76"/>
			</g>
		</g>
	</g>
	<g>
		<g>
			<g>
				
					<line fill="none" stroke="#FFB000" stroke-width="4" stroke-linecap="round" stroke-miterlimit="10" x1="116.97" y1="138.51" x2="82.01" y2="118.33"/>
			</g>
		</g>
		<g>
			<g>
				
					<line fill="none" stroke="#FFB000" stroke-width="4" stroke-linecap="round" stroke-miterlimit="10" x1="116.97" y1="138.51" x2="82.01" y2="118.33"/>
			</g>
		</g>
	</g>
	<g>
		<g>
			<g>
				
					<line fill="none" stroke="#FFB000" stroke-width="4" stroke-linecap="round" stroke-miterlimit="10" x1="337.14" y1="79.52" x2="357.32" y2="44.56"/>
			</g>
			<g>
				
					<line fill="none" stroke="#FFB000" stroke-width="4" stroke-linecap="round" stroke-miterlimit="10" x1="393" y1="296.12" x2="427.95" y2="316.3"/>
			</g>
		</g>
		<g>
			<g>
				
					<line fill="none" stroke="#FFB000" stroke-width="4" stroke-linecap="round" stroke-miterlimit="10" x1="337.14" y1="79.52" x2="357.32" y2="44.56"/>
			</g>
			<g>
				
					<line fill="none" stroke="#FFB000" stroke-width="4" stroke-linecap="round" stroke-miterlimit="10" x1="393" y1="296.12" x2="427.95" y2="316.3"/>
			</g>
		</g>
	</g>
	<g>
		<path fill="#FFB000" d="M269.98,396.41c-0.6-11.2-1.41-37.24,2.23-60.34c-4.83,0.52-10.22,0.82-16.23,0.82s-11.4-0.29-16.23-0.82
			c3.64,23.11,2.83,49.14,2.23,60.34H269.98z"/>
		<path fill="#FFB000" d="M216.74,300.31c-1.6-0.71-3.2-1.06-4.71-1.06c-2.29,0-4.37,0.8-5.97,2.35c-2.78,2.7-3.47,6.92-1.8,11.03
			c1.34,3.32,6.93,12.41,28.25,16.41C229.52,315,224.6,303.78,216.74,300.31z"/>
		<path fill="#FFB000" d="M305.91,301.6c-1.6-1.56-3.69-2.35-5.97-2.35c-1.51,0-3.11,0.35-4.72,1.06
			c-7.87,3.47-12.79,14.69-15.76,28.74c21.32-4,26.91-13.09,28.25-16.41C309.38,308.53,308.69,304.3,305.91,301.6z"/>
	</g>
	<path fill="#FFB000" d="M386.12,218.55c0-73.54-61-132.84-135.17-130.04c-68.25,2.57-123.53,58.75-125.07,127.03
		c-0.82,36.28,13.24,69.26,36.46,93.33l-0.02,0c0,0,30.07,30.02,40.72,87.63c0.31-0.02,0.61-0.09,0.93-0.09h29.13
		c1.08-17.68,0.85-40.07-1.97-58.63c-25.14-4.68-32.82-16.18-35.1-21.81c-3-7.41-1.49-15.55,3.85-20.73
		c5.28-5.12,13.1-6.28,20.44-3.04c10.92,4.82,17.25,18.7,20.84,35.09c4.46,0.47,9.39,0.73,14.82,0.73c5.44,0,10.37-0.26,14.83-0.73
		c3.59-16.39,9.92-30.27,20.84-35.09c7.34-3.23,15.17-2.07,20.44,3.04c5.34,5.18,6.85,13.32,3.85,20.73
		c-2.29,5.63-9.96,17.13-35.11,21.81c-2.83,18.56-3.05,40.95-1.96,58.63h29.13c0.32,0,0.62,0.07,0.93,0.09
		c10.65-57.61,40.72-87.63,40.72-87.63l-0.02,0C372.21,285.47,386.12,253.64,386.12,218.55z M346.51,218.55
		c0-49.92-40.61-90.53-90.53-90.53c-3.26,0-5.91-2.65-5.91-5.91s2.65-5.91,5.91-5.91c56.44,0,102.35,45.91,102.35,102.35
		c0,3.26-2.65,5.91-5.91,5.91C349.16,224.46,346.51,221.81,346.51,218.55z"/>
</g>
</svg>
