<?xml version="1.0" encoding="utf-8"?>
<!-- Generator: Adobe Illustrator 24.3.0, SVG Export Plug-In . SVG Version: 6.00 Build 0)  -->
<svg version="1.1" id="Layer_1" xmlns="http://www.w3.org/2000/svg" xmlns:xlink="http://www.w3.org/1999/xlink" x="0px" y="0px"
	 viewBox="0 0 512 512" enable-background="new 0 0 512 512" xml:space="preserve">
<g>
	<g>
		<path fill="#002147" d="M321.99,420.5H190.01c-6.07,0-10.98-4.92-10.98-10.98l0,0c0-6.07,4.92-10.98,10.98-10.98h131.98
			c6.07,0,10.98,4.92,10.98,10.98l0,0C332.97,415.59,328.06,420.5,321.99,420.5z"/>
		<path fill="#002147" d="M310.85,457.5h-109.7c-6.07,0-10.98-4.92-10.98-10.98v0c0-6.07,4.92-10.98,10.98-10.98h109.7
			c6.07,0,10.98,4.92,10.98,10.98v0C321.83,452.59,316.92,457.5,310.85,457.5z"/>
		<path fill="#002147" d="M227.43,493.5h57.14c8.83,0,15.99-7.16,15.99-15.99h-89.13C211.44,486.34,218.6,493.5,227.43,493.5z"/>
	</g>
	<g>
		<path fill="#FFB000" d="M272.41,379.65c-0.71-13.14-1.66-43.66,2.61-70.76c-5.67,0.61-11.99,0.96-19.03,0.96
			c-7.05,0-13.36-0.34-19.03-0.96c4.27,27.09,3.32,57.62,2.61,70.76H272.41z"/>
		<path fill="#FFB000" d="M209.98,266.96c-1.88-0.83-3.76-1.24-5.53-1.24c-2.68,0-5.12,0.93-7,2.76c-3.26,3.16-4.07,8.12-2.11,12.94
			c1.58,3.89,8.12,14.56,33.12,19.24C224.97,284.19,219.21,271.03,209.98,266.96z"/>
		<path fill="#FFB000" d="M314.55,268.48c-1.88-1.83-4.33-2.76-7-2.76c-1.77,0-3.65,0.41-5.53,1.24
			c-9.23,4.07-14.99,17.23-18.48,33.7c25-4.68,31.55-15.35,33.13-19.24C318.62,276.6,317.81,271.64,314.55,268.48z"/>
	</g>
	<path fill="#FFB000" d="M408.6,171.1c0-86.24-71.53-155.76-158.5-152.49c-80.02,3.02-144.84,68.89-146.66,148.95
		c-0.96,42.54,15.52,81.21,42.75,109.44l-0.02,0.01c0,0,35.26,35.2,47.75,102.75c0.37-0.03,0.72-0.11,1.09-0.11h34.16
		c1.27-20.73,1-46.98-2.32-68.75c-29.48-5.49-38.48-18.97-41.16-25.58c-3.52-8.69-1.75-18.23,4.51-24.3
		c6.19-6,15.37-7.36,23.96-3.57c12.81,5.65,20.23,21.93,24.44,41.15c5.22,0.55,11.01,0.85,17.38,0.85c6.38,0,12.16-0.3,17.39-0.85
		c4.21-19.21,11.63-35.49,24.43-41.15c8.61-3.79,17.79-2.43,23.97,3.57c6.26,6.07,8.03,15.61,4.51,24.3
		c-2.68,6.61-11.68,20.09-41.17,25.58c-3.31,21.77-3.58,48.01-2.3,68.74h34.16c0.37,0,0.72,0.08,1.09,0.11
		c12.49-67.55,47.75-102.75,47.75-102.75l-0.02-0.01C392.28,249.56,408.6,212.24,408.6,171.1z M362.15,171.1
		c0-58.53-47.62-106.15-106.15-106.15c-3.83,0-6.93-3.1-6.93-6.93s3.1-6.93,6.93-6.93c66.18,0,120.01,53.84,120.01,120.01
		c0,3.83-3.1,6.93-6.93,6.93C365.25,178.03,362.15,174.92,362.15,171.1z"/>
</g>
</svg>
